<svg width="36" height="33" viewBox="0 0 36 33" fill="none" xmlns="http://www.w3.org/2000/svg">
<path d="M18.8085 2.80252L15.4089 14H11.3371L10.2807 10.1203L9.47406 7.10481H9.37803L8.49452 10.101L7.30371 14H3.42397L1.06155 2.80252H4.61478L5.40225 7.0856L5.94004 10.4468H6.03607L7.03482 7.10481L8.32166 2.80252H11.6636L12.7584 7.0856L13.5843 10.4468H13.6803L14.4102 7.10481L15.4281 2.80252H18.8085ZM24.351 14.2305C20.7593 14.2305 18.7426 12.0409 18.7426 8.71817C18.7426 5.08811 21.009 2.57203 24.7159 2.57203C28.3652 2.57203 30.305 4.7808 30.305 7.98831C30.305 11.3687 28.2115 14.2305 24.351 14.2305ZM24.543 11.8489C26.1372 11.8489 26.8478 10.5812 26.8478 8.44927C26.8478 6.12527 26.118 4.95366 24.543 4.95366C22.9489 4.95366 22.1998 6.20209 22.1998 8.27641C22.1998 10.466 22.9489 11.8489 24.543 11.8489Z" fill="white"/>
<path d="M33.2667 27.5847C32.3064 27.5847 31.6342 26.8549 31.6342 26.0866C31.6342 25.2415 32.3064 24.4732 33.2667 24.4732C34.2655 24.4732 34.8801 25.2223 34.8801 26.0866C34.8801 26.8165 34.2655 27.5847 33.2667 27.5847Z" fill="#FFD200"/>
<path d="M8.81586 27.3546V22.8603H4.47515V27.3546H1.19081V16.1571H4.47515V20.4018H8.81586V16.1571H12.1002V27.3546H8.81586ZM14.105 27.3546V16.1571H17.3894V27.3546H14.105ZM19.3854 27.3546V16.1571H22.0551L27.1641 22.1496H27.2601V16.1571H30.1603V27.3546H27.4138L22.3432 21.2469H22.2664V27.3546H19.3854Z" fill="white"/>
</svg>
